# xmcd
#
# Track frame offsets: 
#        150
#        8855
#        21602
#        30607
#        39432
#        51692
#        61760
#        71982
#        85232
#        94697
#        104927
#        113510
#        125087
#        137515
#        147802
#        157815
#        168400
#        180350
#        190915
#        203560
#        213707
#        223332
#        235217
#        246565
#        259047
#        269342
#
# Disc length: 3719 seconds
#
# Revision: 0
# Processed by: cddbd v1.5.2PL0 Copyright (c) Steve Scherf et al.
# Submitted via: ExactAudioCopy v1.0b3
#
DISCID=8a0e851a
DTITLE=Bob Wills and His Texas Playboys - Faded Love 1947-1973 [CD10)
DYEAR=2005
DGENRE=Country
TTITLE0=Big Beaver
TTITLE1=San Antonio Rose
TTITLE2=Eight'r From Decatur
TTITLE3=Comanche Hit And Run
TTITLE4=I Needed You
TTITLE5=If You'll Come Back To Me
TTITLE6=Somewhere South Of San Antone
TTITLE7=Faded Love
TTITLE8=Let's Be Sure We Know
TTITLE9=Memphis
TTITLE10=Sugarfoot Rag
TTITLE11=I Wish I Felt This Way At Home
TTITLE12=Looking Over My Shoulder
TTITLE13=Cimarron
TTITLE14=Riders In The Sky
TTITLE15=Here's That Man Again
TTITLE16=Canadian Sunset
TTITLE17=Born To Love You
TTITLE18=Lily Dale
TTITLE19=Fiddle Bird
TTITLE20=Carolina In The Morning
TTITLE21=Rain Drops In The River
TTITLE22=Way Down In Texas
TTITLE23=Don't Send Him Back To Me
TTITLE24=Betcha My Heart I Love You
TTITLE25=Big Taters In The Sandy Land
EXTD=
EXTT0=
EXTT1=
EXTT2=
EXTT3=
EXTT4=
EXTT5=
EXTT6=
EXTT7=
EXTT8=
EXTT9=
EXTT10=
EXTT11=
EXTT12=
EXTT13=
EXTT14=
EXTT15=
EXTT16=
EXTT17=
EXTT18=
EXTT19=
EXTT20=
EXTT21=
EXTT22=
EXTT23=
EXTT24=
EXTT25=
PLAYORDER=
